<svg xmlns="http://www.w3.org/2000/svg" width="947" height="758" viewBox="0 0 947 758" version="1.1">
	<path d="M 15.036 331.749 C 15.057 504.468, 15.475 648.578, 15.981 657.500 C 17.324 681.156, 21.636 694.388, 32.524 708.259 C 41.466 719.653, 57.731 729.588, 75 734.203 L 83.500 736.475 446 736.744 C 645.375 736.892, 828.750 736.626, 853.500 736.153 C 904.624 735.175, 904.224 735.236, 917.249 726.378 C 927.982 719.079, 935.335 708.327, 937.885 696.201 C 939.091 690.471, 939.288 227.275, 938.114 158.500 L 937.500 122.500 914.750 122.231 L 892 121.962 892 97.604 C 892 78.566, 891.710 73.004, 890.671 72.142 C 889.813 71.430, 881.406 70.944, 866.921 70.770 L 844.500 70.500 844 46.500 L 843.500 22.500 429.250 22.249 L 15 21.998 15.036 331.749 M 30.580 95.749 C 30.990 127.512, 31.365 268.250, 31.413 408.500 C 31.496 652.572, 31.579 663.821, 33.340 671 C 36.342 683.233, 42.187 694.258, 49.484 701.448 C 56.787 708.643, 67.913 714.839, 78.500 717.606 C 85.200 719.356, 101.705 719.463, 464 720.105 C 672.175 720.473, 844.862 721.094, 847.750 721.484 C 850.638 721.874, 853 721.881, 853 721.500 C 853 721.119, 850.351 717.915, 847.112 714.381 C 840.897 707.598, 835.207 697.818, 831.913 688.254 C 826.766 673.310, 826.983 688.250, 827.037 351.500 L 827.087 38.500 428.460 38.249 L 29.834 37.998 30.580 95.749 M 845.667 88.667 C 844.513 89.820, 844.892 667.739, 846.051 674.883 C 848.939 692.682, 862.853 711.782, 876.753 717.027 C 881.354 718.763, 883.996 719.109, 890 718.763 C 907.783 717.738, 919.489 706.069, 921.979 686.888 C 922.570 682.337, 922.950 575.719, 922.969 409.224 L 923 138.948 907.750 139.224 L 892.500 139.500 892.253 406 C 892.023 655.156, 891.896 672.581, 890.312 673.750 C 887.628 675.730, 878.626 675.349, 876.655 673.171 C 875.123 671.478, 875 649.671, 875 379.671 L 875 88 860.667 88 C 852.783 88, 846.033 88.300, 845.667 88.667 M 631.595 95.527 C 627.423 97.703, 626.068 99.931, 626.032 104.673 C 626.008 107.735, 626.690 109.666, 628.589 111.923 C 630.814 114.568, 631.848 115, 635.953 115 C 639.748 115, 641.255 114.472, 643.300 112.427 C 648.643 107.084, 647.219 98.243, 640.568 95.464 C 636.193 93.636, 635.208 93.643, 631.595 95.527 M 73 108.500 C 73 118.417, 73.283 121, 74.370 121 C 75.148 121, 76.305 118.982, 77.047 116.334 C 78.587 110.830, 83.173 105.244, 87.702 103.351 C 89.481 102.608, 93.875 102, 97.468 102 L 104 102 104 139.851 C 104 164.907, 103.626 178.773, 102.895 180.872 C 101.579 184.648, 99.382 186, 94.566 186 C 92.063 186, 91 186.447, 91 187.500 C 91 188.792, 94.333 189, 115 189 C 135.667 189, 139 188.792, 139 187.500 C 139 186.414, 137.884 186, 134.955 186 C 131.993 186, 130.252 185.343, 128.455 183.545 L 126 181.091 126 141.545 L 126 102 132.599 102 C 143.345 102, 147.509 104.783, 151.517 114.643 C 155.227 123.773, 156 122.729, 156 108.583 L 156 96 114.500 96 L 73 96 73 108.500 M 170 97.500 C 170 98.505, 171.006 99, 173.050 99 C 177.976 99, 181.826 101.546, 182.505 105.252 C 182.833 107.039, 182.965 125.078, 182.800 145.339 L 182.500 182.178 180.139 184.089 C 178.720 185.238, 176.228 186, 173.889 186 C 171.099 186, 170 186.424, 170 187.500 C 170 188.809, 175.222 189, 211 189 C 243.123 189, 252.004 188.729, 252.020 187.750 C 252.030 187.063, 252.701 180.650, 253.510 173.500 C 254.318 166.350, 254.985 159.488, 254.990 158.250 C 255.010 153.700, 252.425 156.222, 249.750 163.361 C 246.087 173.135, 242.261 178.203, 236.340 181.117 C 232.113 183.198, 230.080 183.500, 220.287 183.500 C 210.859 183.500, 208.790 183.216, 207.287 181.715 C 205.647 180.077, 205.476 176.916, 205.214 143.260 C 205.018 118.168, 205.276 105.748, 206.031 103.924 C 207.336 100.775, 210.766 99, 215.547 99 C 217.950 99, 219 98.544, 219 97.500 C 219 96.207, 215.611 96, 194.500 96 C 173.389 96, 170 96.207, 170 97.500 M 267.750 96.559 C 266.149 98.212, 267.155 99, 270.865 99 C 273.261 99, 275.732 99.788, 277.365 101.073 L 280 103.145 280 142.582 C 280 180.888, 279.942 182.070, 277.983 183.760 C 276.874 184.717, 274.096 185.725, 271.811 186 C 269.525 186.275, 267.470 187.063, 267.244 187.750 C 266.611 189.676, 315.145 189.464, 324.412 187.501 C 344.970 183.146, 357.055 170.682, 360.174 150.617 C 363.185 131.254, 354.280 110.913, 339.199 102.705 C 329.747 97.560, 324.661 96.812, 295.500 96.279 C 280.650 96.008, 268.163 96.134, 267.750 96.559 M 375 97.237 C 375 98.239, 376.375 98.921, 379.147 99.293 C 381.427 99.599, 384.240 100.795, 385.397 101.951 C 387.438 103.990, 387.510 105.054, 387.823 137.776 C 388.001 156.324, 387.854 173.877, 387.497 176.782 C 386.692 183.332, 384.178 186, 378.811 186 C 376.090 186, 375 186.429, 375 187.500 C 375 188.791, 378.278 189, 398.500 189 C 418.722 189, 422 188.791, 422 187.500 C 422 186.447, 420.937 186, 418.434 186 C 410.267 186, 409.014 182.776, 409.006 161.750 L 409 147 412.313 147 C 415.490 147, 416.231 147.862, 430.382 168 L 445.137 189 459.569 189 C 470.704 189, 474 188.705, 474 187.707 C 474 186.996, 472.538 185.983, 470.750 185.457 C 468.059 184.664, 465.149 181.234, 453.825 165.500 C 446.303 155.050, 440.116 146.245, 440.075 145.934 C 440.034 145.623, 442.478 144.341, 445.506 143.086 C 462.903 135.875, 464.930 112.587, 449.087 101.947 C 442.514 97.533, 436.906 96.812, 404.750 96.254 C 378.743 95.802, 375 95.925, 375 97.237 M 475 97.281 C 475 97.985, 476.360 99.075, 478.021 99.702 C 481.695 101.089, 480.780 99.110, 501.523 150.500 C 511.184 174.434, 518.237 190.604, 519.084 190.759 C 520.071 190.940, 524.285 181.911, 533 160.941 C 544.834 132.465, 545.563 131.014, 546.676 133.682 C 547.323 135.232, 552.498 148.767, 558.176 163.760 C 565.274 182.502, 568.927 190.938, 569.867 190.760 C 570.669 190.607, 577.992 172.783, 587.595 147.608 C 596.593 124.018, 604.647 103.662, 605.491 102.374 C 606.335 101.086, 608.145 99.751, 609.513 99.407 C 610.881 99.064, 612 98.157, 612 97.392 C 612 96.280, 609.585 96, 600 96 C 590.427 96, 588 96.281, 588 97.389 C 588 98.183, 589.493 99.057, 591.488 99.432 C 595.103 100.110, 597 102.356, 597 105.960 C 597 107.799, 581.026 151.333, 579.059 154.856 C 578.195 156.403, 578.317 156.684, 566.905 126.803 C 562.557 115.420, 559 104.974, 559 103.589 C 559 100.772, 561.485 99, 565.434 99 C 567.048 99, 568 98.444, 568 97.500 C 568 96.212, 564.889 96, 546 96 C 527.111 96, 524 96.212, 524 97.500 C 524 98.449, 524.956 99, 526.600 99 C 530.865 99, 535.253 104.460, 539.250 114.738 L 542.842 123.977 535.481 141.712 C 528.951 157.446, 528.012 159.168, 527.161 156.974 C 526.633 155.613, 521.881 143.659, 516.600 130.409 C 511.320 117.160, 507 105.138, 507 103.695 C 507 100.897, 509.398 99, 512.934 99 C 514.104 99, 515 98.349, 515 97.500 C 515 96.217, 512.111 96, 495 96 C 479.410 96, 475 96.282, 475 97.281 M 303 140.968 L 303 180.954 305.531 182.613 C 307.448 183.868, 309.317 184.123, 313.225 183.660 C 328.208 181.885, 335.965 168.185, 335.965 143.500 C 335.965 127.227, 332.885 116.494, 325.947 108.593 C 322.463 104.624, 317.001 102.391, 308.750 101.561 L 303 100.983 303 140.968 M 409.500 102.139 C 409.200 102.922, 409.077 112.098, 409.227 122.531 L 409.500 141.500 416.978 141.229 C 421.917 141.050, 425.844 140.286, 428.544 138.979 C 441.144 132.879, 440.343 108.802, 427.359 103.377 C 425.581 102.634, 420.958 101.731, 417.086 101.371 C 411.480 100.850, 409.935 101.007, 409.500 102.139 M 707.267 124.114 C 703.932 125.078, 698.025 130.236, 694.228 135.500 L 692.063 138.500 692.032 131.750 L 692 125 679 125 C 668.561 125, 666 125.274, 666 126.392 C 666 127.157, 667.141 128.070, 668.535 128.420 C 669.977 128.781, 671.487 130.150, 672.035 131.593 C 673.105 134.407, 673.350 174.250, 672.335 180.395 C 671.826 183.475, 671.096 184.515, 668.846 185.364 C 667.281 185.955, 666 187.015, 666 187.719 C 666 188.710, 669.849 189, 683 189 C 697.444 189, 700 188.775, 700 187.500 C 700 186.593, 699.073 186, 697.655 186 C 692.684 186, 692 183.682, 692 166.830 C 692 149.984, 693.199 143.546, 697.112 139.380 C 699.972 136.337, 702.462 136.370, 706.182 139.500 C 711.760 144.193, 718.530 141.815, 719.659 134.767 C 720.480 129.637, 718.530 125.380, 714.756 124.065 C 711.302 122.861, 711.613 122.859, 707.267 124.114 M 753.589 124.081 C 745.319 126.100, 736.479 134.338, 733.497 142.805 C 730.668 150.838, 730.393 162.641, 732.845 170.716 C 736.859 183.930, 745.681 190.579, 759 190.425 C 766.794 190.335, 771.977 187.982, 777.262 182.132 C 785.720 172.770, 785.766 166.520, 777.314 174.971 C 772.535 179.751, 772.022 180, 766.959 180 C 761.905 180, 761.395 179.754, 757.003 175.198 C 753.511 171.574, 751.960 168.919, 750.687 164.382 C 747.840 154.235, 746.540 155, 766.642 155 L 784.285 155 783.648 148.907 C 781.805 131.272, 768.647 120.405, 753.589 124.081 M 619 126.375 C 619 127.131, 620.328 128.016, 621.952 128.340 C 626.517 129.253, 627.188 133.551, 626.818 159.505 C 626.529 179.761, 626.326 181.986, 624.595 183.897 C 623.547 185.054, 621.860 186, 620.845 186 C 619.830 186, 619 186.675, 619 187.500 C 619 188.775, 621.556 189, 636 189 C 650.444 189, 653 188.775, 653 187.500 C 653 186.675, 652.170 186, 651.155 186 C 650.140 186, 648.565 185.177, 647.655 184.171 C 646.196 182.559, 646 178.947, 646 153.671 L 646 125 632.500 125 C 621.712 125, 619 125.276, 619 126.375 M 754.017 130.829 C 750.837 134.010, 749.014 139.436, 749.006 145.750 L 749 150 758 150 L 767 150 767 144.065 C 767 137.353, 765.824 133.522, 762.759 130.250 C 759.947 127.248, 757.432 127.414, 754.017 130.829 M 81.417 235.355 C 81.131 236.101, 81.033 239.588, 81.199 243.105 L 81.500 249.500 136 250.230 C 165.975 250.631, 322.350 250.856, 483.500 250.730 L 776.500 250.500 776.500 243 L 776.500 235.500 634.500 234.896 C 556.400 234.565, 400.123 234.227, 287.219 234.146 C 115.308 234.024, 81.853 234.220, 81.417 235.355 M 113.750 279.749 L 84 280.030 84 389.019 L 84 498.009 192.750 497.754 L 301.500 497.500 301.812 420.500 C 301.983 378.150, 301.819 328.988, 301.446 311.250 L 300.769 279 222.135 279.235 C 178.886 279.364, 130.113 279.595, 113.750 279.749 M 344.022 280.962 C 341.670 282.454, 341.287 296.263, 343.504 299.646 L 345.227 302.277 442.364 301.541 C 507.921 301.044, 539.918 300.462, 540.786 299.750 C 541.703 298.998, 541.989 296.090, 541.786 289.598 L 541.500 280.500 443.500 280.262 C 383.803 280.118, 344.922 280.391, 344.022 280.962 M 583.250 281.031 C 581.164 281.870, 581 282.555, 581 290.445 C 581 298.270, 581.189 299.077, 583.348 300.492 C 585.426 301.854, 596.509 302, 679.884 301.765 C 762.325 301.533, 774.191 301.313, 775.021 300 C 775.543 299.175, 775.976 294.803, 775.985 290.285 C 775.998 283.178, 775.739 281.931, 774.066 281.035 C 771.606 279.719, 586.525 279.715, 583.250 281.031 M 644.093 331.750 C 600.773 331.937, 582.291 332.344, 581.343 333.130 C 579.598 334.579, 579.480 349.080, 581.200 350.800 C 582.116 351.716, 604.589 352, 676.250 352 C 758.002 352, 770.476 351.805, 773.020 350.490 C 776.809 348.530, 778 346.166, 778 340.605 C 778 335.409, 775.754 332.601, 770.806 331.611 C 769.125 331.275, 753.744 331.109, 736.625 331.242 C 719.506 331.375, 677.867 331.604, 644.093 331.750 M 343.035 333.934 C 342.466 334.998, 342 338.823, 342 342.434 C 342 353.375, 340.888 353, 373.335 353 C 388.369 353, 431.836 352.701, 469.929 352.335 C 527.457 351.782, 539.426 351.431, 540.594 350.263 C 542.383 348.474, 542.546 334.946, 540.800 333.200 C 539.883 332.283, 516.541 332, 441.835 332 C 346.201 332, 344.048 332.042, 343.035 333.934 M 343 383 C 340.035 385.965, 340.097 398.097, 343.093 401.093 L 345.185 403.185 442.343 402.489 C 529.348 401.865, 539.631 401.626, 540.750 400.205 C 541.486 399.271, 542 395.674, 542 391.464 C 542 385.803, 541.618 383.965, 540.171 382.655 C 538.496 381.139, 530.222 381, 441.671 381 C 346.333 381, 344.972 381.028, 343 383 M 582.655 382.829 C 580.193 385.549, 580.317 398.072, 582.829 400.345 C 584.503 401.860, 592.634 402, 679.257 402 C 763.924 402, 774.022 401.835, 775.429 400.429 C 777.647 398.210, 777.647 384.790, 775.429 382.571 C 774.022 381.165, 763.908 381, 679.084 381 C 588.538 381, 584.236 381.082, 582.655 382.829 M 342.667 431.667 C 342.300 432.033, 342 436.758, 342 442.167 L 342 452 442 452 L 542 452 542 442.107 C 542 434.008, 541.713 432.104, 540.418 431.607 C 538.250 430.775, 343.500 430.834, 342.667 431.667 M 582.455 433.455 C 580.411 435.499, 580 436.883, 580 441.732 C 580 445.384, 580.580 448.384, 581.557 449.777 L 583.113 452 678.857 452 C 751.990 452, 774.883 451.717, 775.800 450.800 C 777.676 448.924, 777.382 434.525, 775.429 432.571 C 774.022 431.165, 763.935 431, 679.383 431 L 584.909 431 582.455 433.455 M 583.223 482.557 C 581.251 483.937, 581 484.989, 581 491.857 C 581 496.546, 581.473 500.073, 582.200 500.800 C 583.117 501.717, 606.106 502, 679.578 502 C 760.965 502, 775.934 501.784, 776.921 500.595 C 777.653 499.714, 777.978 496.274, 777.794 491.371 C 777.523 484.173, 777.301 483.452, 775 482.291 C 773.042 481.303, 752.232 481.026, 678.973 481.015 C 595.926 481.002, 585.196 481.174, 583.223 482.557 M 342.035 483.934 C 340.919 486.020, 340.612 497.826, 341.607 500.418 C 342.155 501.846, 351.898 502, 441.632 502 L 541.050 502 542.025 499.435 C 543.311 496.052, 543.274 486.380, 541.965 483.934 C 540.952 482.042, 538.785 482, 442 482 C 345.215 482, 343.048 482.042, 342.035 483.934 M 84.667 532.667 C 84.300 533.033, 84 537.525, 84 542.648 C 84 551.480, 84.117 551.990, 86.250 552.504 C 87.487 552.802, 190.650 552.924, 315.500 552.773 L 542.500 552.500 542.790 543.651 C 542.976 537.987, 542.662 534.298, 541.918 533.401 C 540.927 532.207, 507.091 532, 313.044 532 C 187.803 532, 85.033 532.300, 84.667 532.667 M 581.655 533.829 C 579.496 536.214, 579.276 550.155, 581.370 551.892 C 582.378 552.729, 608.193 552.960, 678.951 552.765 C 789.351 552.461, 778 553.667, 778 542.243 C 778 530.759, 789.918 532, 679.620 532 C 587.586 532, 583.236 532.081, 581.655 533.829 M 251.213 582.994 C 104.861 583.439, 84.813 583.680, 83.979 585 C 83.457 585.825, 83.024 589.730, 83.015 593.679 C 83.004 599.164, 83.408 601.265, 84.729 602.586 C 86.362 604.219, 99.085 604.276, 313.479 603.599 C 461.236 603.133, 540.849 602.537, 541.500 601.892 C 542.050 601.346, 542.500 597.286, 542.500 592.869 C 542.500 586.074, 542.201 584.620, 540.559 583.419 C 538.924 582.224, 529.061 582.039, 478.059 582.244 C 444.751 582.378, 342.671 582.716, 251.213 582.994 M 667.106 582.750 C 587.236 582.994, 581.627 583.124, 580.388 584.756 C 578.420 587.348, 578.556 600.413, 580.571 602.429 C 581.978 603.835, 592.071 603.998, 676.821 603.985 C 751.007 603.974, 772.041 603.697, 774 602.709 C 776.295 601.551, 776.524 600.818, 776.791 593.765 C 777.043 587.132, 776.804 585.804, 775.041 584.041 C 773.215 582.215, 771.923 582.026, 762.750 582.244 C 757.112 582.379, 714.073 582.606, 667.106 582.750 M 147 633.987 L 83.500 634.500 83.500 644.500 L 83.500 654.500 290.500 654.808 C 404.350 654.978, 507.528 654.815, 519.784 654.446 L 542.067 653.775 541.784 643.638 L 541.500 633.500 376 633.487 C 284.975 633.480, 181.925 633.705, 147 633.987 M 581.200 634.200 C 579.447 635.953, 579.583 652.409, 581.362 653.886 C 582.349 654.705, 598.950 654.945, 641.612 654.758 L 700.500 654.500 700.789 645.149 C 700.975 639.114, 700.666 635.302, 699.916 634.399 C 698.946 633.230, 689.210 633, 640.578 633 C 596.662 633, 582.106 633.294, 581.200 634.200" stroke="none" fill="black" fill-rule="evenodd"/>
</svg>